# xmcd
#
# Track frame offsets:
#	150
#	19584
#	34231
#	50846
#	68791
#	86456
#	104723
#	117631
#	131785
#
# Disc length: 2042 seconds
# Revision: 0
# Processed by: cddbd v1.5.2PL0 Copyright (c) Steve Scherf et al.
# Submitted via: dBpowerAMP V12.0
#
DISCID=8307f809
DTITLE=Randy Thompson - War Peace Love Fear
DYEAR=2017
DGENRE=Americana
TTITLE0=Midnight Blue
TTITLE1=Better Not Get Me Started
TTITLE2=Forever On My Mind
TTITLE3=All Good Now
TTITLE4=Last Letter Home
TTITLE5=What Side Are You On
TTITLE6=Someday Soon
TTITLE7=Drown In The Mainstream
TTITLE8=33rd Of August
EXTD=
EXTT0=
EXTT1=
EXTT2=
EXTT3=
EXTT4=
EXTT5=
EXTT6=
EXTT7=
EXTT8=
PLAYORDER=
